<svg height="64px" width="64px" version="1.1" id="Layer_1" xmlns="http://www.w3.org/2000/svg" xmlns:xlink="http://www.w3.org/1999/xlink" viewBox="0 0 512 512" xml:space="preserve" fill="#000000"><g id="SVGRepo_bgCarrier" stroke-width="0"></g><g id="SVGRepo_tracerCarrier" stroke-linecap="round" stroke-linejoin="round"></g><g id="SVGRepo_iconCarrier"> <path style="fill:#FFE477;" d="M488.727,186.182h-23.273H253.054H46.545H23.273C10.42,186.182,0,175.762,0,162.909v325.818 C0,501.582,10.42,512,23.273,512h229.781h235.674C501.58,512,512,501.582,512,488.727V162.909 C512,175.762,501.58,186.182,488.727,186.182z"></path> <path style="fill:#6E76E5;" d="M488.727,46.545H356.848h-23.273h-23.273h-57.249h-51.357h-23.273h-23.273H23.273 C10.42,46.545,0,56.965,0,69.818v93.091c0,12.853,10.42,23.273,23.273,23.273h23.273h206.508h212.401h23.273 c12.853,0,23.273-10.42,23.273-23.273V69.818C512,56.965,501.58,46.545,488.727,46.545z"></path> <path style="fill:#A78966;" d="M356.848,46.545V23.273C356.848,10.42,346.428,0,333.576,0s-23.273,10.42-23.273,23.273v23.273 h23.273H356.848z"></path> <path style="fill:#806749;" d="M201.697,46.545V23.273C201.697,10.42,191.277,0,178.424,0c-12.853,0-23.273,10.42-23.273,23.273 v23.273h23.273H201.697z"></path> <path style="fill:#DF6246;" d="M253.054,343.066l10.477-34.605l10.389,34.605H253.054v29.389h29.662l6.701,22.454 c0.031,0.101,0.062,0.202,0.095,0.303c1.981,5.896,7.173,9.559,13.548,9.559c8.149,0,16.873-5.942,16.873-14.786 c0-1.035-0.158-1.898-0.285-2.459c-0.068-0.476-0.172-0.946-0.313-1.407l-39.311-128.323c-0.022-0.067-0.042-0.133-0.065-0.2 c-2.158-6.518-8.592-10.73-16.392-10.73c-0.497,0-0.988,0.019-1.471,0.053c-0.107,0.008-0.211,0.023-0.316,0.033 c-0.377,0.033-0.754,0.068-1.123,0.121c-0.096,0.014-0.186,0.034-0.281,0.05c-0.379,0.061-0.754,0.124-1.123,0.205 c-0.065,0.014-0.126,0.033-0.189,0.048c-0.396,0.092-0.787,0.191-1.17,0.306c-0.036,0.011-0.07,0.025-0.105,0.036 c-0.408,0.126-0.808,0.261-1.199,0.413c-0.012,0.005-0.026,0.011-0.039,0.016c-1.258,0.49-2.428,1.114-3.496,1.857v93.066H253.054z"></path> <g> <path style="fill:#DD512A;" d="M253.054,250c-1.016,0.707-1.936,1.524-2.745,2.439c-0.008,0.009-0.016,0.019-0.023,0.028 c-0.259,0.293-0.504,0.597-0.74,0.911c-0.033,0.043-0.062,0.09-0.093,0.135c-0.208,0.284-0.41,0.573-0.594,0.87 c-0.059,0.095-0.109,0.192-0.164,0.287c-0.154,0.258-0.304,0.514-0.441,0.782c-0.095,0.183-0.174,0.374-0.261,0.56 c-0.088,0.191-0.182,0.377-0.262,0.573c-0.158,0.389-0.304,0.79-0.431,1.198l-39.396,127.971c-0.704,1.921-0.704,3.621-0.704,4.414 c0,9.021,8.56,14.603,16.488,14.603c6.814,0,12.235-3.918,13.881-10.006l6.664-22.309h8.82v-29.389V250H253.054z"></path> <path style="fill:#DD512A;" d="M155.482,248.003h-33.449c-8.4,0-14.978,6.079-14.978,13.841v128.892 c0,7.869,6.578,14.033,14.978,14.033h33.449c30.562,0,48.809-18.598,48.809-49.748V297.57 C204.291,266.533,186.044,248.003,155.482,248.003z M173.202,355.022c0,13.742-5.3,19.605-17.72,19.605h-17.337v-96.478h17.337 c12.42,0,17.72,5.807,17.72,19.42L173.202,355.022L173.202,355.022z"></path> </g> <path style="fill:#EEBF00;" d="M155.482,278.149h-17.337v96.478h17.337c12.42,0,17.72-5.863,17.72-19.605V297.57 C173.202,283.957,167.902,278.149,155.482,278.149z"></path> <path style="fill:#DF6246;" d="M388.805,248.003c-5.579,0-10.404,3.252-13.219,8.879l-26.636,52.551l-26.466-52.508 c-3.885-7.764-9.965-8.923-13.244-8.923c-7.748,0-16.111,5.584-16.111,14.603c0,1.552,0.273,4.606,2.071,7.84l38.178,73.221v46.877 c0,7.978,6.83,14.226,15.548,14.226c8.864,0,15.548-6.116,15.548-14.226v-46.5l38.623-73.716c0.116-0.222,0.225-0.448,0.323-0.68 c0.95-2.237,1.496-4.805,1.496-7.042C404.914,253.587,396.553,248.003,388.805,248.003z"></path> <path style="fill:#EEBF00;" d="M244.233,372.455l-6.664,22.309c-1.646,6.088-7.069,10.006-13.881,10.006 c-7.928,0-16.488-5.584-16.488-14.603c0-0.793,0-2.492,0.704-4.414l39.396-127.971c0.127-0.41,0.273-0.808,0.431-1.198 c0.081-0.196,0.174-0.382,0.262-0.573c0.087-0.188,0.166-0.379,0.261-0.56c0.137-0.267,0.289-0.524,0.441-0.782 c0.056-0.095,0.105-0.194,0.164-0.287c0.185-0.298,0.386-0.586,0.594-0.87c0.031-0.043,0.061-0.092,0.093-0.135 c0.233-0.315,0.483-0.617,0.74-0.911c0.008-0.009,0.016-0.019,0.023-0.028c0.807-0.915,1.727-1.731,2.745-2.439v-63.818H46.545 H23.273C10.42,186.182,0,175.762,0,162.909v325.818C0,501.582,10.42,512,23.273,512h229.781V372.455L244.233,372.455 L244.233,372.455z M204.291,355.022c0,31.151-18.247,49.748-48.809,49.748h-33.449c-8.4,0-14.978-6.164-14.978-14.033V261.845 c0-7.762,6.578-13.841,14.978-13.841h33.449c30.562,0,48.809,18.528,48.809,49.565V355.022z"></path> <g> <path style="fill:#D6D5D8;" d="M249.547,253.379c0.234-0.313,0.481-0.617,0.74-0.911 C250.028,252.762,249.78,253.065,249.547,253.379z"></path> <path style="fill:#D6D5D8;" d="M248.255,255.452c0.137-0.267,0.289-0.524,0.441-0.782 C248.542,254.928,248.391,255.185,248.255,255.452z"></path> <path style="fill:#D6D5D8;" d="M247.732,256.585c0.081-0.195,0.174-0.382,0.262-0.573 C247.906,256.203,247.813,256.389,247.732,256.585z"></path> <path style="fill:#D6D5D8;" d="M248.86,254.383c0.185-0.298,0.386-0.586,0.594-0.87 C249.248,253.797,249.046,254.085,248.86,254.383z"></path> <path style="fill:#D6D5D8;" d="M250.309,252.439c0.807-0.914,1.727-1.73,2.745-2.439l0,0 C252.036,250.708,251.116,251.524,250.309,252.439z"></path> </g> <g> <path style="fill:#DEDEE0;" d="M256.588,248.128c0.391-0.152,0.793-0.289,1.199-0.413 C257.381,247.841,256.979,247.977,256.588,248.128z"></path> <path style="fill:#DEDEE0;" d="M259.254,247.327c0.368-0.081,0.745-0.144,1.123-0.205 C259.997,247.181,259.621,247.246,259.254,247.327z"></path> <path style="fill:#DEDEE0;" d="M257.894,247.679c0.383-0.115,0.774-0.214,1.17-0.306 C258.669,247.465,258.278,247.564,257.894,247.679z"></path> <path style="fill:#DEDEE0;" d="M260.656,247.073c0.368-0.053,0.745-0.088,1.123-0.121 C261.401,246.984,261.024,247.018,260.656,247.073z"></path> <path style="fill:#DEDEE0;" d="M256.549,248.143c-1.258,0.49-2.428,1.112-3.496,1.857l0,0 C254.12,249.257,255.291,248.633,256.549,248.143z"></path> <path style="fill:#DEDEE0;" d="M262.096,246.917c0.484-0.034,0.974-0.053,1.471-0.053 C263.07,246.866,262.578,246.883,262.096,246.917z"></path> </g> <path style="fill:#424EDE;" d="M23.273,186.182h23.273h206.508V46.545h-51.357h-23.273h-23.273H23.273 C10.42,46.545,0,56.965,0,69.818v93.091C0,175.762,10.42,186.182,23.273,186.182z"></path> </g></svg>