<svg height="64px" width="64px" version="1.1" id="Layer_1" xmlns="http://www.w3.org/2000/svg" xmlns:xlink="http://www.w3.org/1999/xlink" viewBox="0 0 512 512" xml:space="preserve" fill="#000000"><g id="SVGRepo_bgCarrier" stroke-width="0"></g><g id="SVGRepo_tracerCarrier" stroke-linecap="round" stroke-linejoin="round"></g><g id="SVGRepo_iconCarrier"> <path style="fill:#DD6246;" d="M505.183,239.546L272.457,6.817c-6.653-6.658-16.665-8.647-25.363-5.046 c-8.696,3.603-14.367,12.088-14.367,21.501v176.543L39.73,6.817C33.077,0.16,23.066-1.829,14.368,1.772 C5.672,5.375,0.001,13.86,0.001,23.273v232.727v232.727c0,9.413,5.669,17.898,14.367,21.501c2.878,1.193,5.903,1.773,8.901,1.773 c6.056,0,12.009-2.365,16.46-6.817l192.999-192.997v176.54c0,9.413,5.669,17.898,14.367,21.501c2.878,1.193,5.903,1.773,8.901,1.773 c6.056,0,12.009-2.365,16.46-6.817l232.727-232.725c4.364-4.364,6.817-10.283,6.817-16.455c0,0,0,0,0-0.002 C511.998,249.827,509.548,243.908,505.183,239.546z"></path> <path style="fill:#DB512A;" d="M0.001,488.726c0,9.413,5.669,17.898,14.367,21.501c2.878,1.193,5.903,1.773,8.901,1.773 c6.056,0,12.009-2.365,16.46-6.817l192.999-192.997v176.54c0,9.413,5.669,17.898,14.367,21.501c2.878,1.193,5.903,1.773,8.901,1.773 c6.056,0,12.009-2.365,16.46-6.817l232.727-232.725c4.366-4.364,6.817-10.283,6.817-16.455v-0.002H0.001V488.726z"></path> </g></svg>