<svg height="64px" width="64px" version="1.1" id="Layer_1" xmlns="http://www.w3.org/2000/svg" xmlns:xlink="http://www.w3.org/1999/xlink" viewBox="0 0 512.005 512.005" xml:space="preserve" fill="#000000"><g id="SVGRepo_bgCarrier" stroke-width="0"></g><g id="SVGRepo_tracerCarrier" stroke-linecap="round" stroke-linejoin="round"></g><g id="SVGRepo_iconCarrier"> <path style="fill:#D9B43A;" d="M393.111,2.312l-0.006-0.006c-2.877-2.877-7.435-3.072-10.614-0.532 c-26.788,21.418-64.695,22.094-92.172,2.007c-5.518-4.034-13.137-3.492-17.97,1.342L6.021,271.453 c-4.783,4.783-5.459,12.37-1.454,17.82c4.243,5.772,7.566,12.007,9.971,18.506c9.2,24.852,4.97,53.549-12.691,74.865 c-2.599,3.137-2.45,7.713,0.431,10.594l0.003,0.003c2.304,2.304,5.77,2.886,8.756,1.589c5.052-2.195,11.15-1.226,15.282,2.906 c4.132,4.132,5.101,10.229,2.906,15.282c-1.298,2.988-0.714,6.454,1.589,8.756l0.784,0.784c2.304,2.304,5.77,2.886,8.756,1.589 c5.052-2.195,11.15-1.226,15.282,2.906c4.132,4.132,5.101,10.229,2.906,15.282c-1.298,2.988-0.714,6.454,1.589,8.756l0.784,0.784 c2.304,2.304,5.77,2.886,8.756,1.589c5.052-2.195,11.15-1.226,15.282,2.906c4.132,4.132,5.101,10.229,2.906,15.282 c-1.298,2.988-0.714,6.454,1.589,8.756l0.784,0.784c2.304,2.304,5.77,2.886,8.756,1.589c5.052-2.195,11.15-1.226,15.282,2.906 c4.132,4.132,5.101,10.229,2.906,15.282c-1.298,2.988-0.714,6.454,1.589,8.756l0,0c2.877,2.877,7.454,3.038,10.584,0.435 c27.078-22.518,65.858-23.648,93.749-3.292c5.509,4.02,13.113,3.456,17.937-1.365l265.367-265.367 c4.829-4.829,5.376-12.438,1.353-17.955c-20.079-27.529-19.216-65.653,2.467-92.668c2.548-3.176,2.354-7.74-0.525-10.619l0,0 c-2.333-2.333-5.837-2.909-8.869-1.61c-5.04,2.159-11.104,1.182-15.218-2.933c-4.114-4.114-5.093-10.178-2.933-15.218 c1.299-3.032,0.723-6.537-1.61-8.869l-0.685-0.685c-2.333-2.333-5.837-2.909-8.869-1.61c-5.04,2.159-11.104,1.182-15.218-2.933 c-4.114-4.114-5.093-10.178-2.933-15.218c1.299-3.032,0.723-6.537-1.61-8.869l-0.685-0.685c-2.333-2.333-5.837-2.909-8.869-1.61 c-5.04,2.159-11.104,1.182-15.218-2.933s-5.093-10.178-2.933-15.218c1.299-3.032,0.723-6.537-1.61-8.869l-0.685-0.685 c-2.333-2.333-5.837-2.909-8.869-1.61c-5.04,2.159-11.104,1.182-15.218-2.933s-5.093-10.178-2.933-15.218 C396.021,8.148,395.444,4.645,393.111,2.312z"></path> <path style="fill:#BB9430;" d="M70.994,206.48L6.021,271.453c-4.783,4.783-5.46,12.37-1.454,17.82 c3.76,5.117,6.797,10.6,9.114,16.306l336.976,90.292l90.27-90.27L70.994,206.48z"></path> <g> <path style="fill:#E2C35A;" d="M70.994,206.48l369.932,99.123l65.469-65.469c4.829-4.829,5.376-12.438,1.353-17.955 c-3.543-4.858-6.421-10.05-8.659-15.449l-337.825-90.52L70.994,206.48z"></path> <path style="fill:#E2C35A;" d="M280.33,55.776L56.768,279.337c-3.831,3.829-5.015,9.525-3.166,14.616 c7.83,21.563,9.153,44.979,3.97,67.166c-1.086,4.652,0.299,9.533,3.676,12.912l76.564,76.564c3.397,3.397,8.313,4.777,12.985,3.659 c22.381-5.361,46.004-4.125,67.728,3.715c5.083,1.834,10.763,0.644,14.584-3.177l222.668-222.668 c3.816-3.816,5.004-9.482,3.188-14.563c-7.593-21.238-8.923-44.336-3.977-66.294c1.03-4.567-0.43-9.339-3.74-12.651l-78.025-78.029 c-3.292-3.292-8.029-4.753-12.576-3.756c-21.807,4.782-44.748,3.349-65.86-4.272C289.747,50.741,284.117,51.99,280.33,55.776z"></path> </g> <path style="fill:#D9B43A;" d="M117.236,218.871l-60.468,60.467c-3.829,3.829-5.015,9.525-3.166,14.616 c2.823,7.776,4.787,15.795,5.919,23.908l244.896,65.62l90.27-90.27L117.236,218.871z"></path> <path style="fill:#EBD37A;" d="M117.236,218.871l277.45,74.342l61.09-61.09c3.816-3.816,5.004-9.482,3.188-14.563 c-2.685-7.514-4.572-15.261-5.69-23.107l-245.768-65.852L117.236,218.871z"></path> <g> <path style="fill:#644D2D;" d="M354.169,104.087l-29.316,29.316c-4.048,4.048-4.048,10.611,0,14.659 c4.048,4.048,10.611,4.048,14.659,0l7.329-7.329l31.759,31.759c4.048,4.048,10.611,4.048,14.659,0s4.048-10.611,0-14.659 l-31.759-31.759l7.329-7.329c4.048-4.048,4.048-10.611,0-14.659C364.78,100.039,358.217,100.039,354.169,104.087z"></path> <path style="fill:#644D2D;" d="M290.651,167.605c-14.817,14.817-14.817,38.929,0,53.746c14.817,14.817,38.929,14.817,53.746,0 c4.722-4.722,8.126-10.615,9.842-17.041c1.477-5.531-1.809-11.211-7.34-12.688c-5.531-1.476-11.211,1.809-12.688,7.34 c-0.777,2.909-2.323,5.583-4.472,7.732c-3.988,3.988-9.455,5.615-14.652,4.88l29.31-29.31c4.048-4.048,4.048-10.611,0-14.659 C329.58,152.786,305.468,152.786,290.651,167.605z M300.428,196.915c-0.735-5.196,0.893-10.665,4.88-14.652 c3.987-3.987,9.455-5.615,14.652-4.88L300.428,196.915z"></path> <path style="fill:#644D2D;" d="M274.143,237.859v-28.723c0-5.724-4.641-10.365-10.365-10.365c-5.724,0-10.365,4.641-10.365,10.365 v33.609l-11.622-11.622c-4.048-4.048-10.611-4.048-14.659,0c-4.048,4.048-4.048,10.611,0,14.659l39.088,39.088 c4.048,4.048,10.611,4.048,14.659,0c4.048-4.048,4.048-10.611,0-14.659l-6.736-6.736v-4.887h28.723 c2.862,0,5.453-1.159,7.329-3.036c1.875-1.875,3.036-4.467,3.036-7.329c0-5.724-4.641-10.365-10.365-10.365L274.143,237.859 L274.143,237.859z"></path> <path style="fill:#644D2D;" d="M208.566,279.169c3.241-3.241,7.551-5.026,12.134-5.026c5.724,0,10.365-4.641,10.365-10.365 s-4.641-10.365-10.365-10.365c-20.893,0-37.888,16.997-37.889,37.889c0.001,20.891,16.998,37.888,37.889,37.889 c10.446,0,19.918-4.25,26.78-11.11c6.86-6.86,11.11-16.333,11.11-26.778c0-5.724-4.641-10.365-10.365-10.365 c-5.724,0-10.365,4.641-10.365,10.365c0,4.584-1.786,8.893-5.026,12.134c-3.241,3.241-7.55,5.026-12.132,5.025 c-9.462,0-17.16-7.699-17.161-17.16C203.54,286.719,205.325,282.41,208.566,279.169z"></path> <path style="fill:#644D2D;" d="M153.843,304.413c-4.048,4.048-4.048,10.611,0,14.659l39.088,39.088 c4.048,4.048,10.611,4.048,14.659,0c4.048-4.048,4.048-10.611,0-14.659l-39.088-39.088 C164.454,300.366,157.891,300.366,153.843,304.413z"></path> <path style="fill:#644D2D;" d="M133.811,324.445l-29.316,29.316c-4.048,4.048-4.048,10.611,0,14.659 c4.048,4.048,10.611,4.048,14.659,0l7.329-7.329l31.759,31.759c4.048,4.048,10.611,4.048,14.659,0s4.048-10.611,0-14.659 l-31.76-31.759l7.329-7.329c4.048-4.048,4.048-10.611,0-14.659S137.858,320.397,133.811,324.445z"></path> </g> <g> <path style="fill:#9E7325;" d="M104.026,274.951l9.233,4.924l7.33-7.33c2.528-2.528,6.871-0.355,6.421,3.212l-1.356,10.73 l9.592,5.116c3.256,1.737,2.427,6.596-1.205,7.055l-10.086,1.274l-1.274,10.086c-0.459,3.632-5.318,4.461-7.055,1.205l-5.116-9.592 l-10.73,1.356c-3.567,0.451-5.741-3.893-3.212-6.421l7.33-7.33l-4.924-9.233C97.221,276.713,100.737,273.197,104.026,274.951z"></path> <path style="fill:#9E7325;" d="M162.657,216.32l9.233,4.924l7.33-7.33c2.528-2.528,6.871-0.355,6.421,3.212l-1.356,10.73 l9.592,5.116c3.256,1.737,2.427,6.596-1.205,7.055l-10.086,1.274l-1.274,10.086c-0.459,3.632-5.318,4.461-7.055,1.205l-5.116-9.592 l-10.73,1.356c-3.567,0.451-5.741-3.893-3.212-6.421l7.33-7.33l-4.924-9.233C155.852,218.08,159.368,214.565,162.657,216.32z"></path> <path style="fill:#9E7325;" d="M221.29,157.687l9.233,4.924l7.33-7.33c2.528-2.528,6.871-0.355,6.421,3.212l-1.356,10.73 l9.592,5.116c3.256,1.737,2.427,6.596-1.205,7.055l-10.086,1.274l-1.274,10.086c-0.459,3.632-5.318,4.461-7.055,1.205l-5.116-9.592 l-10.73,1.356c-3.567,0.451-5.741-3.893-3.212-6.421l7.33-7.33l-4.924-9.233C214.484,159.449,217.999,155.933,221.29,157.687z"></path> <path style="fill:#9E7325;" d="M279.921,99.056l9.233,4.924l7.33-7.33c2.528-2.528,6.871-0.355,6.421,3.212l-1.356,10.73 l9.592,5.116c3.256,1.737,2.427,6.596-1.205,7.055l-10.086,1.274l-1.274,10.086c-0.459,3.632-5.318,4.461-7.055,1.205l-5.116-9.592 l-10.73,1.356c-3.567,0.451-5.741-3.893-3.212-6.421l7.33-7.33l-4.924-9.233C273.117,100.818,276.632,97.302,279.921,99.056z"></path> <path style="fill:#9E7325;" d="M211.518,382.443l9.233,4.924l7.33-7.33c2.528-2.528,6.871-0.355,6.421,3.212l-1.356,10.73 l9.592,5.116c3.256,1.737,2.427,6.596-1.205,7.055l-10.086,1.274l-1.274,10.086c-0.459,3.632-5.318,4.461-7.055,1.205l-5.116-9.592 l-10.73,1.356c-3.567,0.451-5.741-3.893-3.212-6.421l7.33-7.33l-4.924-9.233C204.712,384.204,208.228,380.69,211.518,382.443z"></path> <path style="fill:#9E7325;" d="M270.149,323.812l9.233,4.924l7.33-7.33c2.528-2.528,6.871-0.355,6.421,3.212l-1.356,10.73 l9.592,5.116c3.256,1.737,2.427,6.596-1.205,7.055l-10.086,1.274l-1.274,10.086c-0.459,3.632-5.318,4.461-7.055,1.205l-5.116-9.592 l-10.73,1.356c-3.567,0.451-5.741-3.893-3.212-6.421l7.33-7.33l-4.924-9.233C263.345,325.573,266.86,322.057,270.149,323.812z"></path> <path style="fill:#9E7325;" d="M328.781,265.179l9.233,4.924l7.33-7.33c2.528-2.528,6.871-0.355,6.421,3.212l-1.356,10.73 l9.592,5.116c3.256,1.737,2.427,6.596-1.205,7.055l-10.087,1.274l-1.274,10.086c-0.459,3.632-5.318,4.461-7.055,1.205l-5.116-9.592 l-10.73,1.356c-3.567,0.451-5.741-3.893-3.212-6.421l7.33-7.33l-4.924-9.233C321.976,266.941,325.492,263.425,328.781,265.179z"></path> <path style="fill:#9E7325;" d="M387.414,206.548l9.233,4.924l7.33-7.33c2.528-2.528,6.871-0.355,6.421,3.212l-1.356,10.73 l9.592,5.116c3.256,1.737,2.427,6.596-1.205,7.055l-10.086,1.274l-1.274,10.086c-0.459,3.632-5.318,4.461-7.055,1.205l-5.116-9.592 l-10.73,1.356c-3.567,0.451-5.741-3.893-3.212-6.421l7.33-7.33l-4.924-9.233C380.609,208.308,384.125,204.793,387.414,206.548z"></path> </g> </g></svg>