<svg width="64px" height="64px" viewBox="0 0 60 60" xmlns="http://www.w3.org/2000/svg" fill="#000000"><g id="SVGRepo_bgCarrier" stroke-width="0"></g><g id="SVGRepo_tracerCarrier" stroke-linecap="round" stroke-linejoin="round"></g><g id="SVGRepo_iconCarrier"><defs><style> .cls-1 { fill: #000000; fill-rule: evenodd; } </style></defs><path class="cls-1" d="M520,90a30,30,0,1,0,30,30A30,30,0,0,0,520,90Zm13.277,23.278-0.822-.823a1.008,1.008,0,0,0-.494-0.27,0.991,0.991,0,0,0-.565.042l-10.214,5.081a1,1,0,0,1-.494.053,0.987,0.987,0,0,1-.458-0.189l-13.537-10.651a1,1,0,0,0-1.306.091l-0.774.774a1,1,0,0,0-.092,1.308l12.1,15.425a4.1,4.1,0,0,0,.342.455L517,124.625l0,0a3.957,3.957,0,0,0,5.951.056l10.311-9.972A1,1,0,0,0,533.277,113.278Z" id="watch" transform="translate(-490 -90)"></path></g></svg>